<?xml version="1.0" encoding="UTF-8"?>
<svg xmlns="http://www.w3.org/2000/svg" width="100" height="100" fill="none">
  <g clip-path="url(#clip0_3681_174)">
    <path fill-rule="evenodd" clip-rule="evenodd" d="M11.437 0L89.23.1l1.837.735c1.001.4 2.57 1.301 3.472 2.002.901.701 2.204 2.103 2.938 3.105.701 1.001 1.603 2.804 1.937 4.005.634 2.103.667 3.338.5 79.279l-.734 1.835c-.4 1.002-1.336 2.57-2.037 3.505-.734.902-2.103 2.237-3.105 2.904-1.001.701-2.738 1.57-3.906 1.937-2.037.667-2.738.667-79.362.5l-1.837-.734c-1.001-.4-2.57-1.302-3.472-2.003-.901-.7-2.204-2.103-2.938-3.104C1.822 93.064.92 91.262.586 90.06c-.634-2.103-.667-3.338-.5-79.278L.82 8.946c.4-1.001 1.336-2.57 2.037-3.505.734-.901 2.07-2.203 2.938-2.837.901-.635 2.537-1.47 3.64-1.87L11.436 0zm12.02 35.984h1.502V2.937h-1.502v33.047zm25.875 1.335c.668 0 .668-.233.668-17.19 0-16.991 0-17.192-.668-17.192s-.668.2-.668 17.191c0 16.958 0 17.191.668 17.191zM91.935 5.274c.4.467 1.102 1.435 1.569 2.17.5.734 1.102 2.07 1.402 3.004.4 1.335.501 3.872.501 13.586 0 11.716 0 11.95.668 11.95s.668-.234.668-12.284c0-12.15 0-12.284-.802-13.92-.4-.934-1.202-2.203-1.736-2.804-.534-.634-1.436-1.435-1.97-1.802l-1.001-.701.7.801zm4.14 55.712c.634 0 .668-.2.668-11.016 0-10.782-.034-11.015-.668-11.015-.668 0-.668.233-.668 11.015 0 10.816 0 11.016.668 11.016zm-47.577 35.95L50 96.703c0-33.748-.033-34.048-.668-34.048-.668 0-.668.334-.768 17.157l-.066 17.124zm-25.041 0l1.502-.233V63.99h-1.502v32.946zm71.282-7.043c-.367 1.102-1.001 2.47-1.402 3.004-.367.568-1.068 1.436-1.57 1.97l-.867.968c1.569-1.035 2.57-2.003 3.272-2.804.7-.801 1.569-2.27 1.936-3.205.601-1.635.635-2.67.635-13.786 0-11.783 0-12.017-.668-12.017-.635 0-.668.234-.635 11.95 0 11.216-.033 12.05-.7 13.92z" fill="#000"></path>
    <path d="M54.51 97.073V64.028h40.9v11.917c0 11.115-.034 12.083-.668 13.953-.368 1.101-1.236 2.737-1.937 3.672-.801 1.068-1.836 1.969-4.574 3.338l-33.721.166z" fill="#fff"></path>
    <path d="M53.002 97.067l.034-16.556.033-16.523 1.436.2.334 32.746-1.837.133zm-47.74-7.504c-.334-.935-.5-4.94-.634-13.452l-.2-12.084 19.03.167v32.713h-5.843c-5.108 0-6.043-.1-7.378-.668-.868-.367-1.703-.901-1.837-1.202-.167-.3-.834-1.335-1.502-2.336-.668-1.002-1.402-2.404-1.636-3.138z" fill="#fff"></path>
    <path d="M3.821 90.06c-.7-1.736-.734-2.404-.8-13.954l-.101-12.15 1.502.234.2 12.017c.134 8.445.301 12.417.602 13.352.267.734.968 2.136 1.569 3.104.634.935 1.269 1.803 1.469 1.903.2.1.334.334.334.5 0 .2-.1.334-.267.334-.134.034-1.035-.768-2.004-1.736C5.19 92.53 4.29 91.228 3.821 90.06zm1.67-82.95a15.166 15.166 0 0 1 1.87-1.736c.567-.434 1.068-.7 1.135-.6.066.1-.434.8-1.069 1.568-.668.802-1.536 2.27-1.936 3.272-.668 1.736-.735 2.503-1.069 26.203l-1.502.167.067-12.25v-.093c.1-11.992.102-12.229.868-13.86.434-.935 1.168-2.137 1.636-2.67zM54.51 35.988V2.908l17.027.1.151.001c16.545.1 16.914.101 18.213.834.734.367 1.669 1.068 2.036 1.502.4.4 1.102 1.368 1.57 2.103.5.734 1.101 2.07 1.402 3.004.4 1.368.5 3.905.5 25.536h-40.9zm-1.508 0l.034-16.557.033-16.523 1.436.2v32.713l-1.503.167z" fill="#fff"></path>
    <path d="M27.726 38.254c.567-.701.6-1.936.567-18.025V2.938H48.66v17.19c0 16.958 0 17.191.667 17.191.367 0 .668.167.668.334s.234.568.5.835c.435.434 3.406.5 44.907.5V61.02l-44.572-.033-.501.868c-.267.467-.768.834-1.102.834-.534 0-.567 1.069-.734 34.215l-8.681.1c-4.775.067-9.315 0-11.519-.267l-.1-17.358c-.034-13.685-.167-17.424-.5-17.758-.335-.334-3.24-.467-24.608-.767V39.154l24.04-.167.6-.734z" fill="#0290D9"></path>
    <path d="M10.17 3.872c.901-.3 1.97-.634 2.437-.7.468-.101 3.072-.134 10.851-.068v32.713l-19.03.167.166-12.25c.167-11.617.234-12.385.902-14.12.4-1.002 1.268-2.47 1.936-3.238.634-.801 1.169-1.536 1.169-1.67 0-.166.7-.533 1.569-.834z" fill="#fff"></path>
  </g>
  <defs>
    <clipPath id="clip0_3681_174">
      <path fill="#fff" d="M0 0H100V100H0z"></path>
    </clipPath>
  </defs>
</svg>
