<?xml version="1.0" encoding="UTF-8"?>
<svg xmlns="http://www.w3.org/2000/svg" width="100" height="100" viewBox="0 0 100 100" fill="none">
  <g clip-path="url(#clip0_3666_65)">
    <path d="M70.4476 8.87716C71.4025 8.58477 72.7277 8.29239 73.3708 8.19492C74.0139 8.09746 75.4949 8.01949 76.6837 8C77.853 8 79.6069 8.11695 80.5813 8.29239C81.5362 8.44832 83.1147 8.85766 84.0891 9.16954C85.044 9.50091 86.5446 10.1247 87.402 10.573C88.2595 11.0213 89.4872 11.7815 90.1498 12.2688C90.8124 12.7561 91.7283 13.4968 92.196 13.9452C92.6637 14.374 93.4822 15.2122 94.0279 15.7969C94.5541 16.3817 95.4115 17.4733 95.8987 18.214C96.3859 18.9742 97.068 20.1048 97.3798 20.748C97.6916 21.3913 98.1398 22.4438 98.3737 23.0871C98.588 23.7303 98.8998 24.7439 99.0752 25.3287C99.2311 25.9135 99.4455 27.044 99.5624 27.8042C99.6794 28.5839 99.7768 30.1238 99.7768 31.2154C99.7768 32.4434 99.6404 33.9833 99.387 35.1723C99.1727 36.2444 98.8024 37.7453 98.5491 38.486C98.2957 39.2268 97.789 40.4158 97.4383 41.1175C97.0875 41.8192 96.4639 42.9108 96.0351 43.5541C95.6064 44.1973 94.8269 45.2304 93.3458 46.9652V65.7169C93.3458 80.9599 93.2874 84.644 93.073 85.3652C92.9366 85.8525 92.5663 86.7296 92.274 87.3144C91.9622 87.8992 91.2411 88.8738 90.637 89.4781C90.0329 90.0823 89.078 90.8035 88.5128 91.0764C87.9672 91.3688 86.9928 91.7392 86.3886 91.8951C85.3948 92.1485 80.4254 92.1875 46.7699 92.1875C11.8281 92.1875 8.16443 92.1485 7.01465 91.8756C6.31309 91.7002 5.29972 91.3103 4.77355 90.9985C4.22789 90.7061 3.33145 89.9849 2.7663 89.4196C2.18166 88.8543 1.49959 87.9966 1.22676 87.5093C0.953928 87.022 0.603147 86.2423 0.427756 85.755C0.135438 84.9558 0.0964627 82.3828 -0.000976562 33.613L0.48622 32.346C0.739562 31.6442 1.20727 30.6891 1.51908 30.2018C1.81139 29.7145 2.45449 28.9543 2.94169 28.4865C3.4094 28.0187 4.40328 27.3364 5.1633 26.9661C5.92333 26.5957 7.01465 26.2059 7.59928 26.1084C8.28136 25.972 16.9535 25.9135 54.2727 25.9135L54.8378 24.1202C55.1691 23.1261 55.8122 21.5277 56.3189 20.5531C56.8061 19.5785 57.7025 18.136 58.3067 17.3368C58.9108 16.5377 60.119 15.1732 61.0155 14.3155C61.9119 13.4579 63.315 12.3273 64.114 11.801C64.913 11.2552 66.2772 10.495 67.1347 10.1052C67.9921 9.69584 69.4927 9.15005 70.4476 8.87716Z" fill="black"></path>
    <path d="M3.33155 83.9027C3.19514 83.1425 3.11719 78.5228 3.11719 70.8038V58.855H90.2279L90.1694 71.564C90.1304 80.9398 90.0525 84.4679 89.8771 84.9747C89.7602 85.3451 89.3119 86.0858 88.9027 86.6316C88.3765 87.3333 87.7919 87.8011 85.4923 88.9707H46.7895H46.7889C8.94405 88.9707 8.0671 88.9707 7.1122 88.6003C6.58602 88.3859 5.74805 87.8596 5.28034 87.4308C4.81263 86.9825 4.22799 86.2807 3.99414 85.8519C3.7408 85.4231 3.44848 84.5459 3.33155 83.9027Z" fill="#243E98"></path>
    <path d="M78.5148 69.0497C78.6902 68.4065 78.8656 68.1531 79.3333 67.9581C79.6646 67.8022 80.1128 67.7242 80.3467 67.7632C80.5805 67.8022 80.9508 68.0166 81.1652 68.231C81.5159 68.6014 81.5549 68.9522 81.6134 72.4804C81.6524 74.5855 81.6329 76.4958 81.5744 76.7492C81.4965 76.9831 81.2821 77.3535 81.0677 77.5679C80.8339 77.8018 80.4051 77.9577 80.0349 77.9577C79.6061 77.9577 79.2553 77.8018 78.9241 77.4509C78.4564 76.9636 78.4369 76.8856 78.3784 73.416C78.3394 71.2523 78.3784 69.537 78.5148 69.0497Z" fill="black"></path>
    <path d="M70.8756 68.4649C70.973 68.2895 71.3043 68.0361 71.6161 67.8997C71.9279 67.7632 72.3761 67.6852 72.5905 67.7437C72.8049 67.8022 73.1751 68.0751 73.409 68.3285C73.8572 68.7963 73.8572 68.8743 73.7598 77.217L73.2726 77.5874C72.9998 77.8018 72.5126 77.9772 72.2008 77.9577C71.8695 77.9577 71.4212 77.7628 71.1679 77.5094C70.7392 77.0806 70.7197 77.0026 70.7392 72.9482C70.7392 70.6676 70.7976 68.6404 70.8756 68.4649Z" fill="black"></path>
    <path d="M63.3922 68.3675C63.5287 68.1725 63.86 67.9386 64.1133 67.8412C64.3861 67.7437 64.7759 67.7047 64.9902 67.7632C65.2046 67.8022 65.5749 68.0751 65.8087 68.3285C66.2375 68.7768 66.257 68.9133 66.257 72.8897C66.257 76.9831 66.257 76.9831 65.7698 77.4704C65.458 77.8018 65.0877 77.9577 64.659 77.9577C64.2692 77.9577 63.8405 77.7823 63.5676 77.5094C63.1389 77.0806 63.1194 77.0026 63.1389 72.8897C63.1389 69.8294 63.2169 68.6014 63.3922 68.3675Z" fill="black"></path>
    <path d="M11.7884 67.9776L12.3341 67.5098L12.8797 67.042H37.9996L39.0714 67.9776L39.1299 72.2465C39.1688 74.5855 39.1494 76.7882 39.0909 77.139C39.0324 77.4704 38.7986 77.9382 38.5842 78.1526C38.1945 78.5425 37.9411 78.5425 25.4299 78.5425C12.9187 78.5425 12.6654 78.5425 12.2756 78.1526C12.0613 77.9382 11.8274 77.4704 11.7689 77.139C11.7105 76.7882 11.691 74.5855 11.7884 67.9776Z" fill="black"></path>
    <path d="M15.0049 75.4246V72.7931V70.1616H35.8569V75.4246H15.0049Z" fill="#9B9EE3"></path>
    <path d="M3.21463 55.6391L3.15616 51.1169L3.11719 46.5752L59.9243 46.5947L61.3469 47.9397C62.1069 48.6999 63.3346 49.694 64.0752 50.1618C64.7962 50.6296 65.9265 51.2923 66.6086 51.6237C67.2712 51.9551 68.5769 52.4814 69.5318 52.7933C70.4672 53.1246 72.1042 53.5145 73.176 53.7094C74.6571 53.9628 75.7484 54.0018 77.7556 53.9238C79.3731 53.8458 81.0101 53.6509 82.004 53.3975C82.8809 53.1831 84.2841 52.7543 85.1026 52.4229C85.9405 52.111 87.1878 51.5068 87.8893 51.0974C88.5909 50.6881 89.3899 50.2008 90.2279 49.694V55.7366L3.21463 55.6391Z" fill="#9B9EE3"></path>
    <path d="M6.54705 29.8319C7.07322 29.5785 7.89171 29.3056 8.37891 29.2276C8.8661 29.1497 19.2726 29.0717 53.7856 29.0327V30.826C53.7856 31.8201 53.922 33.516 54.0779 34.588C54.2533 35.6601 54.6431 37.3365 54.9743 38.2916C55.3056 39.2467 55.9487 40.7671 57.2934 43.2621H3.11719L3.17565 38.6424C3.23411 34.9779 3.31207 33.8278 3.56541 33.1261C3.7408 32.6388 4.26697 31.8006 4.73468 31.2743C5.20239 30.748 6.02088 30.0853 6.54705 29.8319Z" fill="#243E98"></path>
    <path d="M71.2685 11.9771C72.2234 11.7042 73.5486 11.3924 74.2502 11.2949C74.9517 11.1974 76.4328 11.1585 77.5631 11.2169C78.6934 11.2754 80.1745 11.4313 80.876 11.5873C81.5776 11.7432 82.6299 12.0356 83.2146 12.2305C83.7992 12.4255 84.949 12.9323 85.748 13.3416C86.547 13.7314 87.5993 14.3357 88.0865 14.6671C88.5737 14.979 89.8404 16.1485 90.9123 17.2206C92.2114 18.5461 93.1599 19.7221 93.7575 20.7487C94.2642 21.6064 94.8878 22.8734 95.1606 23.5751C95.4334 24.2768 95.8037 25.3684 95.9791 26.0116C96.135 26.6549 96.3883 28.0193 96.5053 29.0329C96.6807 30.4364 96.6807 31.3525 96.5053 32.834C96.3883 33.906 96.135 35.3095 95.9791 35.9527C95.8037 36.596 95.4334 37.6876 95.1606 38.3893C94.8878 39.091 94.2642 40.358 93.7575 41.2157C93.1599 42.2423 92.2114 43.4183 90.9123 44.7438C89.8404 45.8159 88.5737 46.9854 88.0865 47.2973C87.5993 47.6287 86.508 48.2524 85.6505 48.6812C84.7931 49.1101 83.2925 49.6949 82.3376 49.9872C81.3827 50.2601 79.7067 50.572 78.6349 50.689C77.2318 50.8449 76.16 50.8449 74.8348 50.689C73.8214 50.572 72.3209 50.2796 71.5219 50.0652C70.7229 49.8508 69.3587 49.344 68.5012 48.9346C67.6438 48.5448 66.3771 47.8236 65.6755 47.3558C64.9739 46.8685 63.8047 45.9133 63.0446 45.1921C62.2846 44.4904 61.1933 43.2039 60.6087 42.3657C60.024 41.5081 59.225 40.1241 58.8158 39.2664C58.426 38.4088 57.9193 37.0053 57.6855 36.1477C57.4711 35.29 57.1983 33.7696 57.1008 32.7755C56.9644 31.5864 56.9644 30.3389 57.1008 29.0914C57.2178 28.0388 57.4906 26.5184 57.705 25.7192C57.9193 24.9201 58.426 23.5556 58.8353 22.6979C59.225 21.8403 60.0045 20.4758 60.5502 19.6766C61.1153 18.8774 62.2067 17.5909 62.9862 16.8307C63.7657 16.0705 64.935 15.0959 65.5781 14.6671C66.2212 14.2382 67.3904 13.556 68.1699 13.1662C68.93 12.7763 70.3331 12.25 71.2685 11.9771Z" fill="#9B9EE3"></path>
    <circle cx="72.1008" cy="29.0471" r="8.04905" fill="#9B9EE3" stroke="black" stroke-width="3"></circle>
    <circle cx="77.46" cy="32.6523" r="6.39258" fill="#9B9EE3" stroke="black" stroke-width="3"></circle>
    <path d="M88.7242 36.9394C88.7242 39.3053 86.6513 41.3832 83.8907 41.3832C81.13 41.3832 79.0571 39.3053 79.0571 36.9394C79.0571 34.5735 81.13 32.4956 83.8907 32.4956C86.6513 32.4956 88.7242 34.5735 88.7242 36.9394Z" fill="#9B9EE3" stroke="black" stroke-width="3"></path>
  </g>
  <defs>
    <clipPath id="clip0_3666_65">
      <rect width="100" height="100" fill="white"></rect>
    </clipPath>
  </defs>
</svg>
