<?xml version="1.0" encoding="UTF-8"?>
<svg xmlns="http://www.w3.org/2000/svg" width="100" height="100" fill="none">
  <path d="M76.156 42.877c-.167-.417-.125-.667.166-1.084.271-.416.542-.541 1.083-.541.438 0 .875.145 1.063.375.208.208.312.625.25 1.083-.042.52-.209.792-.646 1.042-.5.27-.625.27-1.146 0a2.2 2.2 0 0 1-.77-.875zM16.248 29.605c0-.333.145-.77.333-.937.187-.188.562-.333.854-.333.27 0 .687.083.916.208.25.125.5.562.625 1.104.125.48.563 1.959.958 3.271.417 1.313 1.125 3.292 1.583 4.375.459 1.083 1.146 2.542 1.542 3.23.416.728.708 1.54.708 1.978 0 .396-.104.855-.25 1-.146.125-.604.25-1.041.25-.667 0-.854-.104-1.23-.666-.229-.375-.874-1.625-1.437-2.771a60.228 60.228 0 0 1-1.77-4.063c-.417-1.083-.98-2.895-1.27-4-.271-1.125-.5-2.312-.521-2.646zm65.527-4.187c.188-1.313.438-2.604.542-2.854.146-.396.333-.48 1.125-.48.77 0 .979.084 1.166.48.188.333.167 1.02-.02 2.646a50.781 50.781 0 0 1-.626 4.062 61.403 61.403 0 0 1-.916 3.75c-.292 1.021-.77 2.48-1.062 3.23-.292.75-.646 1.479-.792 1.624-.146.146-.583.271-.979.271-.396-.02-.854-.125-1-.27-.145-.146-.25-.584-.25-.938 0-.375.313-1.604.709-2.709.374-1.124.937-3.02 1.228-4.229.292-1.208.688-3.27.875-4.583zm-66.388-2.083c-.02-.438.084-.855.25-1 .167-.146.625-.25 1.042-.25.396 0 .854.104 1 .25.145.145.25.604.25 1 0 .395-.105.854-.25.979-.146.146-.584.27-.98.27-.416 0-.874-.104-1.02-.25-.146-.145-.27-.604-.292-1zm31.185-21.21A83.189 83.189 0 0 1 48.864.313C49.093.146 49.593 0 50.009 0c.396 0 .917.146 1.146.313.229.166 1.312 1.02 2.395 1.895 1.083.855 2.833 2.105 3.854 2.73 1.02.645 2.395 1.395 3.02 1.687.625.27 1.937.77 2.916 1.104.979.334 2.52.75 3.437.917.916.187 2.458.312 3.436.312.98 0 2.417-.145 3.229-.312.812-.167 1.646-.313 1.875-.313.229 0 .791.188 1.25.417.604.27.958.646 1.25 1.292.395.812.416 1.312.416 6.729 0 4.52-.084 6.396-.375 8.333a69.493 69.493 0 0 1-.875 4.584 49.34 49.34 0 0 1-1.146 3.958c-.374 1.021-1.312 3.146-2.103 4.688-.792 1.541-2.083 3.708-2.854 4.791-.77 1.084-2.416 3-3.687 4.292-1.27 1.271-3.187 2.98-4.27 3.771a63.255 63.255 0 0 1-3.957 2.688c-1.083.645-3.291 1.833-4.895 2.625-2.52 1.229-3.062 1.416-4.062 1.416-1 0-1.541-.187-4.062-1.416-1.603-.792-3.811-1.98-4.894-2.646-1.084-.646-2.875-1.854-3.958-2.646-1.083-.813-3-2.521-4.27-3.792-1.27-1.27-2.916-3.208-3.687-4.292-.791-1.083-2.103-3.333-2.957-5-.834-1.666-1.854-4.041-2.27-5.312a62.857 62.857 0 0 1-1.167-4.375 78.92 78.92 0 0 1-.688-4.063c-.166-1.208-.27-4.187-.27-7.604 0-3.083.062-5.875.166-6.188.084-.333.375-.875.667-1.208.312-.375.854-.708 1.354-.833.625-.146 1.291-.125 2.54.104.959.167 2.48.312 3.396.312.917 0 2.458-.145 3.437-.333.979-.187 2.562-.625 3.54-.958.98-.354 2.521-1 3.438-1.459.916-.458 2.27-1.229 3.02-1.708.75-.5 2.208-1.562 3.228-2.375z" fill="#000"></path>
  <path d="M45.43 6.479c.854-.563 2.124-1.5 2.812-2.084.687-.562 1.458-1.041 1.729-1.041.25-.021.958.395 1.666.979.646.542 1.979 1.5 2.958 2.146.979.646 2.728 1.646 3.916 2.25 1.166.583 2.936 1.333 3.957 1.687 1 .334 2.791.771 4 .959 1.561.229 2.853.291 4.477.208 1.271-.063 2.73-.188 3.27-.27.959-.168.98-.147 1.146.457.084.355.167 2.875.167 5.625 0 3.73-.104 5.605-.375 7.396-.208 1.313-.646 3.459-.979 4.73-.354 1.291-.979 3.27-1.416 4.375-.438 1.125-1.25 2.895-1.813 3.916-.562 1.021-1.687 2.771-2.52 3.855-.812 1.083-2.52 2.958-3.75 4.166-1.249 1.209-2.832 2.625-3.52 3.146-.687.542-2.103 1.5-3.124 2.167-1.02.666-3.103 1.833-4.582 2.583-1.833.917-2.937 1.354-3.437 1.354-.479 0-1.687-.479-3.437-1.354-1.5-.75-3.645-1.979-4.79-2.73a49.241 49.241 0 0 1-3.645-2.603c-.854-.688-2.542-2.271-3.75-3.521-1.208-1.25-2.728-3.021-3.374-3.938a39.136 39.136 0 0 1-2.125-3.437c-.52-.98-1.27-2.667-1.687-3.75-.437-1.084-1.083-3.188-1.458-4.688-.396-1.5-.854-4.062-1.041-5.729-.25-2.125-.333-4.25-.271-7.23.042-3.395.125-4.27.375-4.54.27-.293.52-.313 1.812-.126.833.125 2.312.23 3.291.23.979 0 2.5-.105 3.374-.23.896-.125 2.416-.458 3.395-.73.98-.29 2.98-1.103 4.479-1.853 1.5-.73 3.416-1.792 4.27-2.375z" fill="#625EA9"></path>
  <path d="M57.927 19.397c.292-.188.854-.438 1.25-.584.396-.145 1.208-.25 1.77-.27.73 0 1.417.187 2.291.583.688.333 1.459.854 1.688 1.208.25.334.604.938.812 1.334.27.5.375 1.187.375 2.187 0 1.063-.104 1.688-.417 2.292-.229.458-.708 1.104-1.02 1.458-.334.354-2.291 2.23-4.354 4.188-2.062 1.958-5.02 4.75-6.56 6.208-1.542 1.458-3.25 2.896-3.792 3.167-.77.395-1.333.5-2.457.5-1.125 0-1.688-.105-2.438-.5-.666-.334-2.27-1.792-4.686-4.23-2.166-2.208-3.854-4.062-4.103-4.583-.313-.646-.438-1.292-.438-2.354 0-1.125.104-1.688.5-2.438.27-.562.73-1.208 1-1.437.25-.25.875-.646 1.375-.896.624-.313 1.27-.438 2.27-.438.979 0 1.708.146 2.354.438.52.23 1.645 1.125 2.5 1.98.853.833 1.686 1.54 1.832 1.54.125 0 2.375-2.02 4.978-4.5 2.625-2.478 4.979-4.666 5.27-4.853z" fill="#000"></path>
  <path d="M54.073 27.188a588.115 588.115 0 0 1 4.937-4.645c.833-.75 1.125-.875 1.874-.875.542 0 1.084.145 1.333.375.25.187.563.562.688.812.125.27.229.75.229 1.104 0 .417-.236.882-.708 1.396-.375.438-3.625 3.563-7.186 6.938-3.562 3.375-6.749 6.229-7.062 6.333-.312.104-.833.104-1.187.02-.437-.083-1.75-1.25-4.228-3.708-1.958-1.979-3.687-3.812-3.812-4.104-.125-.291-.166-.854-.104-1.25.063-.396.27-.875.48-1.062a4.81 4.81 0 0 1 .895-.604c.291-.146.812-.209 1.208-.125.479.083 1.354.77 3.166 2.52 1.833 1.75 2.645 2.396 3.02 2.396.313 0 .896-.354 1.52-.875.542-.5 2.771-2.583 4.937-4.646z" fill="#FBA929"></path>
  <path d="M2.166 34.998c.23-.166.813-.52 1.27-.77.647-.355 1.209-.459 2.375-.48 1.125 0 1.73.105 2.396.438.479.25 1.145.687 1.458 1 .333.292.833.98 1.104 1.52.5 1 .5 1.042.5 7.772 0 5.75.041 6.812.312 7.083.208.208.75.313 1.729.313.937 0 1.687.145 2.333.437.708.313 3.353 2.834 10.956 10.459C35.285 71.457 36.7 72.978 37.222 74.06c.603 1.248.604 1.292.707 6.082l.001.022c.083 4 .167 4.876.416 5.042.167.104.459.209.625.209.167 0 .584.187.938.416.354.23.791.688.979 1 .333.5.375 1.167.375 5.667s-.042 5.167-.375 5.667c-.188.291-.75.833-2.125 1.833H12.935l-.875-.646c-.5-.354-1.062-.896-1.25-1.187-.333-.5-.375-1.167-.375-5.667s.042-5.167.375-5.667c.188-.312.625-.77.98-1 .353-.229.79-.416.978-.416.188 0 .5-.146.667-.313.25-.23.333-.708.312-3.333l-6.082-6.146C2.52 70.436 1.5 69.29 1.083 68.332c-.27-.625-.625-1.458-.77-1.812C.082 65.957.02 63.165 0 38.436l.875-1.563c.458-.854 1.041-1.708 1.291-1.875z" fill="#000"></path>
  <path d="M3.661 38.124c.167-.354.625-.812 1-1.041H4.64c.375-.23.917-.417 1.208-.417.292 0 .833.187 1.187.417.375.229.834.75 1 1.145.25.605.313 2.021.313 8.167 0 7.292-.021 7.48-.48 8.396-.354.73-.458 1.292-.458 2.604 0 1.209.125 1.875.396 2.396.208.396 2.208 2.584 4.458 4.854 3.874 3.875 4.145 4.105 4.874 4.105.624 0 .874-.126 1.208-.584.25-.312.416-.854.416-1.187-.02-.521-.646-1.25-3.978-4.584-3.562-3.583-3.958-4.041-4.062-4.791-.062-.48.021-1.042.167-1.355.146-.27.604-.729 1-1 .583-.395.895-.479 1.562-.375.77.105 1.541.813 10.685 9.959 5.457 5.437 10.06 10.23 10.31 10.687.417.771.459 1.167.563 9.48h-18.33v-4.688l-6.332-6.354c-5.603-5.646-6.353-6.48-6.665-7.396-.292-.917-.333-2.52-.333-14.417 0-11.48.041-13.48.312-14.02z" fill="#FBC58E"></path>
  <path d="M90.359 35.186c.312-.313.958-.75 1.416-.98.604-.333 1.229-.437 2.354-.458 1.187 0 1.708.105 2.5.5.54.271 1.228.771 1.52 1.105.291.312.833 1.125 1.854 2.979v13.75c0 11.27-.063 13.875-.292 14.438-.167.354-.5 1.187-.77 1.812-.417.98-1.396 2.063-12.665 13.438l-.02 1.52c0 1.063.083 1.584.312 1.813.166.167.479.313.666.313.209 0 .625.166.938.375.312.187.77.645 1 .979.395.583.416.958.416 5.729 0 4.5-.042 5.167-.375 5.667-.187.291-.75.833-2.125 1.833H61.26l-.895-.646c-.48-.354-1.042-.896-1.23-1.187-.333-.5-.374-1.167-.374-5.667 0-4.77.02-5.146.416-5.73.23-.333.688-.79 1-.978.313-.209.708-.375.875-.375.167 0 .458-.105.625-.209.25-.166.333-1.041.416-5.041v-.012c.105-4.822.105-4.844.709-6.093.52-1.083 1.958-2.625 10.518-11.208 7.582-7.625 10.165-10.063 10.957-10.459.791-.395 1.374-.52 2.436-.52.959 0 1.48-.105 1.709-.313.291-.27.333-1.208.333-7.083 0-6.73 0-6.771.5-7.75.27-.563.77-1.25 1.104-1.542z" fill="#000"></path>
  <path d="M91.985 38.228c.166-.395.624-.916 1-1.145h-.022c.375-.23.896-.417 1.146-.417.27 0 .77.146 1.104.312.333.167.812.625 1.041.98.396.666.417 1.062.417 14.125 0 12-.042 13.541-.333 14.479-.313.917-1.062 1.77-12.977 13.75L83.341 85H65.01l.041-4.313c.063-4 .104-4.396.521-5.167.25-.458 4.812-5.187 10.31-10.666 7.27-7.25 10.02-9.875 10.478-9.959.333-.083.833-.083 1.083-.02.27.062.791.395 1.145.729.604.541.688.75.688 2.708l-4 4.02c-3.54 3.542-3.999 4.105-4.02 4.688 0 .459.174.862.521 1.209.354.354.75.52 1.188.52.604 0 1.145-.458 4.603-3.916 2.166-2.146 4.186-4.313 4.478-4.834.48-.812.562-1.166.562-2.604 0-1.312-.104-1.875-.458-2.604-.458-.917-.479-1.104-.479-8.375 0-6.167.063-7.583.313-8.188z" fill="#FBC58E"></path>
</svg>
